<svg id="Layer_1" data-name="Layer 1" xmlns="http://www.w3.org/2000/svg" xmlns:xlink="http://www.w3.org/1999/xlink" viewBox="0 0 378.00679 92.23931"><defs><style>.cls-1{fill:url(#linear-gradient);}.cls-2{fill:#161412;}.cls-3{fill:#f5cb45;}.cls-4{fill-rule:evenodd;fill:url(#radial-gradient);}.cls-5{fill:url(#radial-gradient-2);}.cls-6{mask:url(#mask);}.cls-7{fill:#fff;opacity:0.9;}.cls-8{filter:url(#luminosity-invert);}</style><linearGradient id="linear-gradient" x1="293.60268" y1="305.787" x2="275.47778" y2="266.91801" gradientUnits="userSpaceOnUse"><stop offset="0" stop-color="#fff"/><stop offset="0.10966" stop-color="#fafafa"/><stop offset="0.24157" stop-color="#ebebeb"/><stop offset="0.38503" stop-color="#d3d3d3"/><stop offset="0.53669" stop-color="#b2b2b1"/><stop offset="0.69482" stop-color="#868685"/><stop offset="0.85574" stop-color="#525251"/><stop offset="1" stop-color="#1d1d1b"/></linearGradient><radialGradient id="radial-gradient" cx="264.22965" cy="378.95607" r="67.22234" gradientTransform="translate(115.5582 49.5531) scale(0.6749)" gradientUnits="userSpaceOnUse"><stop offset="0" stop-color="#ffe37e"/><stop offset="0.24276" stop-color="#fedf79"/><stop offset="0.53453" stop-color="#fbd56a"/><stop offset="0.85038" stop-color="#f5c352"/><stop offset="1" stop-color="#f2b944"/></radialGradient><radialGradient id="radial-gradient-2" cx="264.55442" cy="440.61585" r="79.18461" xlink:href="#radial-gradient"/><filter id="luminosity-invert" filterUnits="userSpaceOnUse" color-interpolation-filters="sRGB"><feColorMatrix values="-1 0 0 0 1 0 -1 0 0 1 0 0 -1 0 1 0 0 0 1 0"/></filter><mask id="mask" x="3.5313" y="3.7842" width="75.3847" height="54.8028" maskUnits="userSpaceOnUse"><g class="cls-8"><g transform="translate(-247.77541 -259.1738)"><path class="cls-1" d="M287.9976,275.999c-1.1031,5.4932-3.084,9.8868-6.3736,12.2803-3.2895,2.3867-8.0874,2.9111-13.6435,2.2637a77.59329,77.59329,0,0,1-12.7866-2.8477,42.65457,42.65457,0,0,1,34.0439-24.7373A77.85344,77.85344,0,0,1,287.9976,275.999Zm22.6426,14.3125a12.41526,12.41526,0,0,1-4.3204-1.9424c-3.2895-2.3896-5.2666-6.788-6.3701-12.2792a77.36281,77.36281,0,0,1-1.2402-13.0381,42.69617,42.69617,0,0,1,27.977,15.0654A101.60235,101.60235,0,0,0,310.6402,290.3115Zm-46.4385,11.5733c4.8735,2.7441,8.4487,5.9814,9.7016,9.8506a11.49381,11.49381,0,0,1,.5367,2.9873,114.5193,114.5193,0,0,1-21.2403,3.0381,42.37717,42.37717,0,0,1-1.018-21.087A77.53133,77.53133,0,0,1,264.2017,301.8848Z"/></g></g></mask></defs><title>EurodomLogoRus</title><path class="cls-2" d="M369.8921,285.7949c-10.3965,0-18.105,8.378-18.105,21.792,0,11.8184,7.2056,20.1992,18.7691,20.1992,7.0483,0,11.15521-1.7675,12.6596-2.5996l-1.0009-3.1015c-2.2632,1.0859-5.2837,2.2636-11.1519,2.2636-8.2954,0-15.3389-5.1132-15.3389-17.9394h29.669a9.9376,9.9376,0,0,0,.17431-2.4287C385.56741,298.1992,383.0537,285.7949,369.8921,285.7949Zm-13.916,17.4278c.7627-6.1944,4.5249-14.0821,13.4092-14.0821,9.727,0,12.0752,8.4698,11.9848,14.0821Zm54.1465,2.5175v-.1689c4.86181-1.0869,8.5473-4.4414,8.5473-9.3027,0-8.6319-9.9746-9.9746-16.6767-9.9746a67.65873,67.65873,0,0,0-10.7285.8398v39.8145c2.01071.165,5.86671.4169,9.6381.4169,7.7125,0,19.608-1.5078,19.608-11.4794C420.5108,309.7598,415.9092,306.4912,410.1226,305.7402Zm-15.0874-15.5908a57.89336,57.89336,0,0,1,6.5361-.417c8.7217,0,13,2.0967,13,7.0401,0,5.7002-7.0474,7.541-12.7441,7.541h-6.792Zm6.792,33.8662a61.7608,61.7608,0,0,1-6.8731-.3447v-16.084h6.44631c7.55029,0,15.00679,1.0938,15.00679,8.2989C416.4072,323.002,407.1826,324.0156,401.8272,324.0156Zm43.665-38.2207c-7.043,0-11.9853,3.2657-14.9219,8.5479h-.165l-.252-7.6309h-3.8515c.251,3.8555.332,7.7969.332,12.8291v39.9971h4.0225V320.4072h.1699c2.7656,4.8614,7.874,7.461,13.665,7.461,9.7149,0,18.2666-7.377,18.2666-21.71C462.7578,294.3428,455.8037,285.7949,445.4922,285.7949Zm-1.25679,38.7159a13.59119,13.59119,0,0,1-13.24221-10.2227,12.99,12.99,0,0,1-.3369-3.1816v-7.8838a16.59618,16.59618,0,0,1,.584-3.4346,13.97882,13.97882,0,0,1,13.32711-10.6475c9.13959,0,14.168,8.1387,14.168,17.1836C458.73541,317.0537,453.4512,324.5108,444.23541,324.5108Zm40.23529-38.7159c-9.9785,0-19.02829,7.6231-19.02829,21.3653,0,12.5781,8.04789,20.708,18.44039,20.708h.0811c8.8877,0,19.1943-6.4522,19.1943-21.377C503.1582,294.1729,495.6133,285.7949,484.4707,285.7949Zm-.3369,38.7159h-.0889c-8.2109,0-14.581-7.5342-14.581-17.5977,0-8.6367,4.60551-17.7725,14.9219-17.7725,10.6435,0,14.7509,10.1455,14.7509,17.5244C499.1367,316.9766,492.5195,324.5108,484.1338,324.5108Zm52.3838-37.7989H512.877v10.8145a56.29941,56.29941,0,0,1-2.5928,17.9375,39.37431,39.37431,0,0,1-4.1006,8.1299h-3.1865l.3232,15.9277h3.3575l.2558-12.5732h29.584l.2559,12.5732h3.3486l.3398-15.9277h-3.9443Zm-4.0234,36.8819H510.6289a46.62487,46.62487,0,0,0,3.5059-7.8789,61.37432,61.37432,0,0,0,2.4375-17.8526v-7.8017h15.9219Zm29.2509-37.7989c-9.9736,0-19.0234,7.6231-19.0234,21.3653,0,12.5781,8.043,20.708,18.4395,20.708h.0771c8.8877,0,19.2002-6.4522,19.2002-21.377C580.4385,294.1729,572.8926,285.7949,561.7451,285.7949Zm-.3359,38.7159h-.0811c-8.2148,0-14.5849-7.5342-14.5849-17.5977,0-8.6367,4.6103-17.7725,14.917-17.7725,10.6484,0,14.7607,10.1455,14.7607,17.5244C576.4209,316.9766,569.7901,324.5108,561.4092,324.5108Zm61.3603-37.7989h-4.789l-7.794,19.5283c-1.8398,4.6944-4.6855,12.3252-5.7812,15.5088h-.0772c-.9248-2.8457-3.0205-8.3007-4.2734-11.6445l-9.1387-23.3926h-4.6152l-3.1787,40.2364h4.0234l1.251-21.0372c.25591-5.0371.58891-10.2216.6777-14.7597h.3291c1.0948,3.6953,3.1065,9.6426,4.5254,13.333l8.63971,22.4639H605.501l9.1387-22.8008c2.42871-6.0332,4.0986-10.3965,4.8496-12.9961h.2607c.2461,5.0322.5869,9.7226.835,14.5888l1.1709,21.2081h4.0263Z" transform="translate(-247.77541 -259.1738)"/><path class="cls-3" d="M268.3003,343.7051l.4087-.6094.5923.4434-.5923-.4434-.4087.6094-.6475-.4307.4683-.6269c5.7695-7.5928,14.8496-19.7647,25.7105-19.8545h0c10.8608.0898,19.9448,12.2617,25.7138,19.8545h0l.4688.6269-.648.4307a45.88435,45.88435,0,0,1-25.5346,7.708h0a45.82392,45.82392,0,0,1-25.5313-7.708Zm25.5313,6.2295a44.45508,44.45508,0,0,0,24.061-7.0264h0c-5.7227-7.6445-14.645-18.7168-24.061-18.6416h0c-9.4121-.0752-18.335,10.9971-24.0611,18.6416h0a44.46174,44.46174,0,0,0,24.0611,7.0264Zm27.6181-8.5518c-4.6528-6.664-11.6362-16.626-11.6655-25.8281h0a15.33727,15.33727,0,0,1,.7236-4.7647h0c3.4385-10.3027,17.8238-15.1767,26.8311-18.3134h0l.7373-.2559.2129.751a45.98565,45.98565,0,0,1,1.709,12.4023h0a46.11139,46.11139,0,0,1-2.271,14.2608h0a45.88053,45.88053,0,0,1-15.2202,21.9023h0l-.6089.4854-.4483-.6397Zm.6055-.4248.5967-.4228-.5967.4228ZM311.9097,311.25a13.87228,13.87228,0,0,0-.6514,4.3047h0c-.0303,8.1836,6.3062,17.7285,10.9414,24.333h0a44.45322,44.45322,0,0,0,14.1206-20.708h0a44.67532,44.67532,0,0,0,2.1988-13.8057h0a44.69382,44.69382,0,0,0-1.4488-11.248h0c-9.0332,3.081-22.3271,8.1416-25.1606,17.124Zm-46.6475,30.1416a45.98773,45.98773,0,0,1-15.2202-21.9004h0a46.07866,46.07866,0,0,1-2.2666-14.2617h0a45.93843,45.93843,0,0,1,1.7085-12.4033h0l.2134-.75.7368.251c9.0078,3.1406,23.3965,8.0146,26.8306,18.3173h0a15.41736,15.41736,0,0,1,.7246,4.7598h0c-.0337,9.2041-7.0137,19.1699-11.6621,25.8301h0l-.4517.6435-.6133-.4863Zm-16.0083-36.1621a44.56668,44.56668,0,0,0,2.1944,13.8047h0a44.45257,44.45257,0,0,0,14.125,20.708h0c4.6313-6.6045,10.9672-16.1533,10.937-24.3379h0a13.78794,13.78794,0,0,0-.6475-4.2978h0c-2.833-8.9834-16.1274-14.045-25.1601-17.1299h0a44.53066,44.53066,0,0,0-1.4488,11.2529Zm54.9907-14.001c-8.7343-6.459-8.9267-21.6445-9.1308-31.1816h0l-.0127-.7842.7798.0352a45.87893,45.87893,0,0,1,25.1855,8.7724h0a45.85313,45.85313,0,0,1,16.128,21.2412h0l-.69441.2559.69441-.2559.27239.7325-.75.2294c-5.748,1.7598-13.6221,4.1416-20.8701,4.1465h0c-4.2647,0-8.3467-.831-11.6021-3.1914Zm.8692-1.1972c2.8974,2.1093,6.6514,2.915,10.7329,2.915h0c6.626,0,14.0356-2.1309,19.6855-3.8525h0a44.39672,44.39672,0,0,0-15.3305-19.8262h0a44.45307,44.45307,0,0,0-23.6011-8.458h0c.145,9.5488.8481,23.7549,8.5132,29.2217Zm-53.8872.1533-.7495-.2305.2768-.7314a45.82749,45.82749,0,0,1,16.1226-21.2412h0a45.84876,45.84876,0,0,1,25.186-8.7725h0l.7803-.0352-.0132.7842c-.2041,9.5322-.3916,24.7217-9.1304,31.1768h0c-3.2553,2.3603-7.3379,3.1953-11.6025,3.1953h0c-7.2437-.0039-15.1265-2.3906-20.8701-4.1455Zm20.8701,2.6679c4.0815,0,7.8354-.8027,10.7334-2.915h0c7.6689-5.4619,8.3726-19.6728,8.5132-29.2178h0a44.45926,44.45926,0,0,0-23.5972,8.4493h0A44.443,44.443,0,0,0,252.4151,289h0c5.6416,1.7266,13.0512,3.8565,19.6816,3.8525Z" transform="translate(-247.77541 -259.1738)"/><path class="cls-4" d="M292.0928,259.9453c-.1616,9.5352-.5195,24.5547-8.8286,30.5889-8.3047,6.042-22.7061,1.7383-31.8203-1.0567a45.39971,45.39971,0,0,1,40.6489-29.5322ZM336.5,289.5674c-9.1142,2.7949-23.5122,7.0976-31.8203,1.0605-8.3091-6.0371-8.6626-21.0576-8.8242-30.5888A45.39893,45.39893,0,0,1,336.5,289.5674ZM322.0552,340.958c-5.4795-7.8066-14.0181-20.1709-10.8438-29.9385,3.1739-9.7656,17.3501-14.7461,26.36189-17.8437a45.40926,45.40926,0,0,1-15.5181,47.7822Zm-71.8594-47.9316c9.0156,3.1015,23.1914,8.083,26.3662,17.8496,3.1743,9.7656-5.3647,22.1308-10.8398,29.9365a45.4045,45.4045,0,0,1-15.5264-47.7861Zm18.5132,50.0693c5.7354-7.6182,14.853-19.5615,25.1226-19.5615,10.2724,0,19.3911,11.9433,25.1215,19.5615a45.41993,45.41993,0,0,1-50.2441,0Z" transform="translate(-247.77541 -259.1738)"/><path class="cls-5" d="M336.5,289.5674c-7.8999,2.4238-19.7627,5.9736-28.1953,2.956a100.86419,100.86419,0,0,1,20.8276-15.833A45.0636,45.0636,0,0,1,336.5,289.5674ZM322.0552,340.958c-5.4795-7.8066-14.0181-20.1709-10.8438-29.9385,3.1739-9.7656,17.3501-14.7461,26.36189-17.8437a45.40926,45.40926,0,0,1-15.5181,47.7822Zm-44.8667-26.9678c.8091,9.1641-6.5615,19.8252-11.4663,26.8223a45.19768,45.19768,0,0,1-14.9766-21.5527c-.1455-.46-.2895-.9102-.4223-1.375A114.22652,114.22652,0,0,0,277.1885,313.9902Zm-8.4795,29.1055c5.7354-7.6182,14.853-19.5615,25.1226-19.5615,10.2724,0,19.3911,11.9433,25.1215,19.5615a45.41993,45.41993,0,0,1-50.2441,0Z" transform="translate(-247.77541 -259.1738)"/><g class="cls-6"><path class="cls-7" d="M287.9976,275.999c-1.1031,5.4932-3.0806,9.8868-6.3697,12.2803-3.2934,2.3867-8.0869,2.9111-13.6474,2.2637a77.557,77.557,0,0,1-12.7827-2.8477,42.66019,42.66019,0,0,1,34.04-24.7373A77.85344,77.85344,0,0,1,287.9976,275.999Zm22.6426,14.3125a12.41526,12.41526,0,0,1-4.3204-1.9424c-3.2895-2.3896-5.2666-6.788-6.3701-12.2792a77.36281,77.36281,0,0,1-1.2402-13.0381,42.73586,42.73586,0,0,1,27.9819,15.0654A101.39,101.39,0,0,0,310.6402,290.3115Zm-46.4385,11.5733c4.8735,2.7441,8.4487,5.9814,9.7055,9.8506a11.47024,11.47024,0,0,1,.5328,2.9873,114.5193,114.5193,0,0,1-21.2403,3.0381,42.37717,42.37717,0,0,1-1.018-21.087A77.53133,77.53133,0,0,1,264.2017,301.8848Z" transform="translate(-247.77541 -259.1738)"/></g></svg>